<?xml version="1.0" standalone="no"?>
<!DOCTYPE svg PUBLIC "-//W3C//DTD SVG 1.1//EN" "http://www.w3.org/Graphics/SVG/1.1/DTD/svg11.dtd" >
<svg xmlns="http://www.w3.org/2000/svg">
<metadata></metadata>
<defs>
<font id="bellbottom.laserlaser" horiz-adv-x="870" >
<font-face units-per-em="2048" ascent="1638" descent="-410" />
<missing-glyph horiz-adv-x="512" />
<glyph horiz-adv-x="0" />
<glyph unicode="&#xd;" horiz-adv-x="512" />
<glyph unicode=" "  horiz-adv-x="512" />
<glyph unicode="&#x09;" horiz-adv-x="512" />
<glyph unicode="&#xa0;" horiz-adv-x="512" />
<glyph unicode="!" horiz-adv-x="935" d="M43 319q0 96 20 181q18 92 56.5 181t115 112.5t222.5 37.5q61 0 85.5 -2t67.5 -15t68 -85q0 -102 109.5 -280.5t109.5 -258.5q0 -55 -25.5 -100t-91.5 -96q-61 -33 -127.5 -50.5t-112.5 -23.5t-89 -6q-86 0 -165 23.5t-135.5 76t-82 131t-25.5 174.5zM78 1489 q0 27 21.5 55.5t70.5 57.5q45 20 131 40q39 6 79 10.5t81 4.5q150 0 261.5 -40t131.5 -116q0 -41 -25.5 -88t-106.5 -119.5t-97 -142.5l12 -84l14 -80l-6 -47q-25 -33 -70 -51q-51 -14 -98 -15q-47 0 -96 9l-94 24q-49 23 -49 94q0 31 4 46l12 45q29 41 29 84 q0 66 -102.5 165t-102.5 148z" />
<glyph unicode="&#x22;" horiz-adv-x="1019" d="M6 1556q0 29 12 66q16 96 71.5 168t141.5 102q61 6 111.5 -29.5t73.5 -90.5q12 -33 22 -91l6 -102q0 -123 -42 -251t-113 -241q-63 -70 -94 -89t-55.5 -29.5t-51.5 -10.5l-25 3q-12 20 -14 47q0 33 41 95t49 95l4 39q0 51 -68.5 159.5t-68.5 159.5zM504 1581q0 29 12 66 q16 96 71.5 167.5t141.5 102.5q61 6 111 -30t73 -91q12 -33 23 -90l6 -102q0 -123 -42 -251t-114 -241q-63 -70 -93.5 -89t-55.5 -29.5t-51 -10.5l-25 2q-12 20 -14 47q0 33 41 95.5t49 95.5l4 39q0 51 -68.5 159.5t-68.5 159.5z" />
<glyph unicode="$" horiz-adv-x="794" d="M37 629q0 156 45 282q23 31 47 31q25 0 68 -44t63 -44q10 0 27.5 12.5t31.5 44.5q-8 55 -97 130t-101 118l-10 72v21.5t8 41t45 64.5q16 20 98 59q78 31 84 84l14 53l37 9q35 0 53.5 -35t18.5 -76q70 -14 126 -49t77 -96l6 -41l2 -31q0 -39 -10 -61q-6 -25 -34 -46.5 t-65 -21.5q-25 0 -36 3t-31.5 15.5t-31.5 81t-58 74.5q-29 -10 -48.5 -23.5t-31.5 -44.5q33 -74 193.5 -173t196.5 -206.5t36 -226.5q0 -184 -76 -323q-18 -74 -139 -117q-119 -37 -119 -119l2 -35l-14 -4l-31 -2h-37q-8 16 -16 49l-4 60q-178 49 -252 229q-37 133 -37 285z " />
<glyph unicode="&#x26;" horiz-adv-x="1359" d="M61 438q0 182 95.5 364.5t246.5 346.5q-4 16 -16 49t-43 92q-49 111 -49 170q0 35 10 64.5t41 64.5t80 50.5t102 15.5q39 0 62 -4q29 0 76 -13q41 -6 80.5 -40t62.5 -85q6 -18 10 -36.5t4 -40.5q0 -74 -63 -164l-121 -164q0 -80 59.5 -170t81 -125t29.5 -51l22 -6 q25 0 57 51t56 51q18 0 41 -14q35 -45 48.5 -99.5t17.5 -88t4 -81.5v-34q0 -14 -2 -34t-2 -30l-9 -96q80 -158 125 -209t115 -72q12 -10 16 -37l-2 -38q-72 -82 -184 -82q-61 0 -127 47l-121 88q-49 -61 -132 -89t-173 -28l-100 6q-37 0 -104.5 14.5t-127.5 59.5 q-55 47 -98 111q-33 68 -46 124t-17.5 87.5t-4.5 74.5zM444 825q0 -57 60 -104q20 -12 47 -14q25 0 37 14q-6 25 -14.5 54.5t-27 73.5t-61.5 81l-26 -41q-10 -29 -15 -64zM487 1462l7 -24l26 -88q8 -20 33 -47q41 51 52 74.5t13.5 43t2.5 43.5q-6 25 -33 43q-20 19 -49 13 q-51 -10 -52 -58z" />
<glyph unicode="'" horiz-adv-x="524" d="M6 1556q0 29 12 66q16 96 71.5 168t141.5 102q61 6 111.5 -29.5t73.5 -90.5q12 -33 22 -91l6 -102q0 -123 -42 -251t-113 -241q-63 -70 -94 -89t-55.5 -29.5t-51.5 -10.5l-25 3q-12 20 -14 47q0 33 41 95t49 95l4 39q0 51 -68.5 159.5t-68.5 159.5z" />
<glyph unicode="(" horiz-adv-x="862" d="M39 815q0 250 73.5 473t233.5 402q57 49 130 80.5t136 31.5q45 0 83 -15t73 -54q55 -68 55 -154q0 -51 -27.5 -100t-180 -180.5t-164.5 -249.5l-23 -150l-6 -139q0 -125 25.5 -228.5t91.5 -189.5q80 -72 127 -117t87 -86t62 -135v-24q0 -49 -20.5 -93.5t-53.5 -83.5 q-43 -25 -79.5 -37t-79.5 -12q-41 0 -82 15q-199 131 -308.5 353t-126 369.5t-21.5 202t-5 121.5z" />
<glyph unicode=")" horiz-adv-x="864" d="M39 -39q0 117 152.5 249t177.5 179q35 100 56 216t21 218q0 135 -31.5 244t-109.5 199l-160 137q-61 57 -75 106l-13 68q0 41 15.5 72.5t52.5 83.5q74 70 180 69q152 0 244 -111.5t186 -312.5q18 -55 35.5 -129.5t36 -190.5t18.5 -257q0 -154 -24.5 -294t-100 -336 t-290.5 -374q-80 -43 -154 -43q-72 0 -131 43q-33 33 -54.5 72t-31.5 92z" />
<glyph unicode="," horiz-adv-x="577" d="M72 256q0 41 12 84t45 82q43 72 141 72q87 -1 146 -54q78 -125 78 -286q0 -102 -30 -204t-92.5 -185.5t-103.5 -118.5t-69.5 -47.5t-65.5 -12.5l-37 4q-18 25 -18 48q0 27 38 76.5t48 80.5l6 53q0 66 -49 203t-49 205z" />
<glyph unicode="-" d="M39 590q29 135 49.5 195.5t85.5 101.5l352 -4l277 -4q29 -35 28 -80q0 -41 -36 -131l-37 -97q-29 -23 -99.5 -34t-124 -15t-110.5 -4q-127 0 -239.5 18.5t-145.5 53.5z" />
<glyph unicode="." horiz-adv-x="579" d="M27 100q0 115 50 215.5t144 182.5q35 20 68 20q39 0 84 -26.5t92 -96.5q39 -66 56.5 -118t23.5 -86.5t6 -75.5q0 -72 -28.5 -133.5t-86 -79t-170.5 -29.5q-76 0 -133 23.5t-90 85.5l-12 57z" />
<glyph unicode="0" horiz-adv-x="1024" d="M47 713q0 190 51.5 385.5t111.5 323.5t135 168t155 40q39 0 55 -2t56 -16t77 -51q131 -164 210 -394.5t79 -461.5q0 -74 -8 -147t-34 -179.5t-95 -222.5q-66 -80 -166.5 -119t-220.5 -39q-135 0 -221.5 114.5t-123 226.5t-49 207t-12.5 167zM397 1212q0 -68 18.5 -128 t86.5 -60q33 0 61.5 14.5t40.5 40.5q12 43 12 95v24q0 12 -4 41l-16 102q-10 70 -29.5 96.5t-52.5 30.5q-55 0 -92 -102q-25 -74 -25 -154z" />
<glyph unicode="1" horiz-adv-x="854" d="M39 324q0 125 78 280l149 283q78 150 78 266q0 72 -22.5 138.5t-63.5 117.5l-49 68l-8 36l6 23q47 53 121.5 81t226.5 28l104 -43q60 -31 74 -82q-2 -31 -59.5 -241t-57.5 -300q6 -66 14.5 -119t23 -108.5t31.5 -110.5t76.5 -225t59.5 -197q0 -98 -88 -172 q-141 -74 -342 -74q-49 0 -85 4.5t-90 19.5t-93 62q-39 59 -66 131q-18 68 -18 134z" />
<glyph unicode="2" horiz-adv-x="940" d="M43 524v88l2 90l-2 43q0 188 178 349l264 235q86 78 86 92q0 35 -30 47l-54 11q-37 0 -64.5 -16.5t-29.5 -49.5q0 -51 -20.5 -77.5t-65.5 -39.5q-45 0 -82 19.5t-45 54.5l-6 53q0 35 13.5 65t50 65.5t87 50t87.5 20.5t71 6q66 0 121 -14l121 -49q59 -33 90 -94 q12 -29 12 -60q0 -66 -36 -115q-39 -41 -155 -121.5t-145.5 -107.5t-29.5 -63q0 -49 65 -50q25 0 43.5 7.5t35 14.5t49 25.5t65.5 22.5q33 0 61 -27q66 -74 90.5 -187.5t24.5 -256.5l-2 -90l-2 -115q0 -92 -50 -180t-134 -135l-129 -35q-37 -6 -71 -10t-71 -4q-49 0 -72.5 2 t-78 15t-99.5 50q-84 78 -113.5 198t-29.5 273z" />
<glyph unicode="3" horiz-adv-x="970" d="M43 408q0 121 37 286l72 316q6 14 18 25.5t31 11.5q45 0 113.5 -63.5t91.5 -63.5q25 0 46 11t30.5 29.5t13.5 53.5q0 33 -11.5 52t-31.5 30l-41 8h-35l-43 6q-12 6 -21 35q0 29 13 63q14 29 43 41q76 0 110.5 10.5t40.5 38.5l8 39q0 66 -42 84.5t-70 22.5q-80 0 -107 -78 q0 -18 -17.5 -37.5t-45.5 -30.5q-43 0 -79 18.5t-48 57.5l-8 43q0 41 31.5 83t67.5 63.5t56.5 31t69.5 23.5t113 14q70 0 124 -14q76 -29 130 -70t79 -100q12 -29 13 -55q0 -31 -13 -68l-22 -68q-51 -25 -72.5 -53t-25.5 -63q0 -53 86 -145.5t132 -193t46 -292.5 q0 -100 -26 -189.5t-79 -156.5q-72 -109 -192 -139q-127 -27 -307 -27q-68 0 -123.5 26.5t-87.5 81.5q-29 61 -52 144q-8 43 -12 77.5t-4 80.5z" />
<glyph unicode="4" horiz-adv-x="1067" d="M49 991q0 119 39 196t107.5 189.5t158.5 174t158 73.5l84 10l27 2q223 0 362 -145l8 -31q0 -29 -33.5 -62.5t-48 -51t-20.5 -25.5l-33 -92q-14 -53 -14 -88l6 -56q70 -12 104 -26q39 -8 58 -62l6 -61q0 -57 -25 -107l-37 -8l-32 2q-20 0 -33 4q-37 0 -45 -26l-6 -49 q0 -92 76.5 -269.5t76.5 -253.5q0 -59 -25.5 -110t-90.5 -103q-106 -45 -222 -45q-100 0 -171.5 20.5t-111.5 36t-80 38t-53.5 60.5t-13.5 87v37l8 53q25 86 127.5 226.5t135.5 215.5l8 54q0 27 -8.5 40t-27.5 19t-56 6l-183 13q-127 23 -180 114zM342 1200q12 -43 48 -58.5 t54.5 -20.5t73.5 -13l17 92l10 88q0 51 -51 51q-30 0 -50 -10q-61 -29 -81.5 -59.5t-20.5 -69.5z" />
<glyph unicode="5" horiz-adv-x="1007" d="M47 1499q-6 41 15.5 60.5t70.5 42.5l141 20l158 8q100 0 137 -3t107 -13q124 -12 235 -47q25 -6 37.5 -25.5t12.5 -50.5l-7 -59l-8 -54l-28 -80q-18 -68 -82 -73q-43 0 -77 12t-59 49q0 45 -13 76t-54 43l-53 2q-37 0 -58 4q-47 0 -72.5 -10t-46.5 -41l-8 -41l-4 -39 q0 -33 11.5 -52.5t43.5 -31.5q135 0 249 -56.5t175 -172.5q31 -94 49.5 -198.5t18.5 -211.5q0 -127 -25.5 -231.5t-87.5 -190.5q-59 -72 -151 -107.5t-193 -35.5h-35q-20 0 -45 4q-23 0 -35 2t-55 14q-72 29 -119 72t-65 104l-14 93l-4 98q0 88 20 266l21 254q6 23 22 30 t47 11h23q41 -55 75.5 -88t85.5 -33t87 14.5t53 49.5l14 55q0 39 -25.5 70.5t-54.5 46.5l-53 16l-43 4q-86 0 -154 -61q-35 -4 -49 28l-26 66l-52 205q-14 61 -25.5 100t-27.5 86z" />
<glyph unicode="6" horiz-adv-x="968" d="M43 647q0 147 19.5 255t40 173.5t67.5 178t145.5 232.5t259.5 144q72 0 119 -13t88 -54q92 -86 92 -207q0 -49 -31.5 -110.5t-115.5 -61.5q-33 0 -58.5 17.5t-25.5 49.5l4 60l6 41q0 31 -9 45t-34 30q-43 6 -67.5 -17.5t-53 -68.5t-42 -93t-13.5 -91q0 -74 41 -67l55 4 q113 0 206 -52.5t124 -140.5t49.5 -175t18.5 -177q0 -121 -32 -222.5t-88 -185.5t-142 -115.5t-181 -31.5q-123 0 -202 47q-129 90 -184.5 249t-55.5 357zM444 825q6 -37 35 -59.5t68 -22.5l41 -2q39 0 56.5 7.5t17.5 35.5q-2 6 -3.5 13.5t-11.5 25.5q-10 29 -55 60 q-37 30 -84 30q-29 0 -45 -24q-12 -25 -19 -64z" />
<glyph unicode="7" horiz-adv-x="882" d="M37 350q0 131 106 287l203 295q31 57 55.5 108.5t48 108.5t23.5 151l-6 43q-2 18 -22.5 30.5t-47.5 12.5t-49 -12q-16 -12 -41.5 -36.5t-64.5 -64.5t-80 -40l-27 6q-16 6 -29 29q-10 27 -10 59q0 41 29 122t52.5 124t98.5 61l127 2l119 2h62.5t56.5 -4q23 0 58 -9t55 -15 q41 -18 67 -49q29 -25 29 -58q0 -18 -44 -70.5t-75 -145.5t-31 -202q0 -123 71 -404.5t71 -385.5v-49q-6 -37 -10.5 -74t-49.5 -90t-100 -68l-109 -16l-102 -6q-131 0 -228.5 39t-158.5 139q-47 94 -47 180z" />
<glyph unicode="8" horiz-adv-x="997" d="M47 412q0 139 82 305l137 272q55 109 56 127q0 25 -35 74l-54 84q-4 6 -14 27.5t-23.5 57.5t-13.5 73q0 51 31 99t105.5 76.5t162.5 28.5q90 0 169.5 -22.5t142.5 -71.5q16 -10 33.5 -55t17.5 -90q0 -78 -43 -125l-78 -76q-35 -35 -35 -70q0 -29 66 -112 q31 -35 65.5 -95.5t67.5 -133t49 -144.5t16 -149q0 -23 -1 -48.5t-7 -70.5t-35 -105q-35 -102 -121 -179t-163 -87l-101 -6l-41 -2q-133 0 -228 43t-138 123q-39 80 -50.5 127t-15.5 73.5t-4 51.5zM434 868q0 -25 21 -43q29 -18 69 -18q31 0 50.5 11t29.5 40v25 q0 14 -2 27.5t-22.5 59.5t-57.5 46q-34 0 -67 -70l-15 -43zM449 1360l4 -31q31 -102 77 -102q31 0 51.5 40t20.5 99q-4 33 -27.5 56.5t-54.5 23.5l-24 -4q-18 -6 -32.5 -29.5t-14.5 -52.5z" />
<glyph unicode="9" horiz-adv-x="950" d="M43 668q0 45 2 89t10 106.5t23.5 108.5t32 55t47.5 13q27 0 49 -14q29 -41 75 -64.5t95 -23.5q41 0 73.5 17.5t50 44t17.5 47.5q0 20 -14 36l-162 37q-150 31 -180.5 60.5t-50.5 66.5q-12 35 -13 76l2 37l13 59q10 41 46 91.5t102.5 85t150.5 34.5q113 0 212 -64.5 t158 -170.5q61 -127 92 -276.5t31 -311.5q0 -190 -41 -360.5t-131 -311.5q-47 -63 -123 -102q-76 -35 -157 -35l-56 2q-20 0 -98 25.5t-146.5 134t-86.5 215.5l-19 166zM309 1354q18 -47 82 -72l113 -22q16 12 16 49l-2 51q0 41 -34 60.5t-83 19.5q-43 -6 -67 -29 q-25 -18 -25 -57z" />
<glyph unicode=":" horiz-adv-x="579" d="M27 100q0 115 50 215.5t144 182.5q35 20 68 20q39 0 84 -26.5t92 -96.5q39 -66 56.5 -118t23.5 -86.5t6 -75.5q0 -72 -28.5 -133.5t-86 -79t-170.5 -29.5q-76 0 -133 23.5t-90 85.5l-12 57zM27 973l2 39q51 158 94 240.5t143 131.5l43 7q49 0 95 -32t71 -85l55 -150 q23 -78 23 -141q0 -55 -13.5 -92t-47.5 -78q-100 -72 -242 -72q-84 0 -139 37q-84 78 -84 195z" />
<glyph unicode=";" horiz-adv-x="577" d="M27 969l2 35q47 150 96 241.5t147 130.5h25q61 0 105 -24.5t73 -77.5q76 -133 76 -281q0 -66 -19 -131q-20 -35 -60 -68.5t-91 -46t-109 -12.5q-94 0 -153 39q-92 74 -92 195zM72 256q0 41 12 84t45 82q43 72 141 72q87 -1 146 -54q78 -125 78 -286q0 -102 -30 -204 t-92.5 -185.5t-103.5 -118.5t-69.5 -47.5t-65.5 -12.5l-37 4q-18 25 -18 48q0 27 38 76.5t48 80.5l6 53q0 66 -49 203t-49 205z" />
<glyph unicode="?" horiz-adv-x="1028" d="M43 319q0 96 20 181q18 92 56.5 181t115 112.5t222.5 37.5q109 0 168 -16q65 -14 90 -86q0 -102 109.5 -280.5t109.5 -258.5q0 -55 -25.5 -100t-91.5 -96q-147 -80 -348 -80q-94 0 -176 22.5t-140.5 76t-84 132t-25.5 174.5zM133 1403l6 49q6 25 25 49q68 63 171 93 t220 30h41.5t50.5 -4q43 0 121 -12q37 0 66.5 -9.5t73.5 -35t71 -82.5l2 -31q0 -104 -133 -205.5t-153.5 -128t-22.5 -57.5l2 -41l4 -41q0 -31 -13.5 -50.5t-58.5 -27.5q-82 -20 -147 -20q-76 0 -134.5 20.5t-101.5 75.5q0 59 32 108.5t142.5 118t127 107.5t16.5 51 q0 25 -21.5 46t-58.5 34q-31 6 -55.5 -17.5t-34.5 -56.5l2 -31q0 -41 -14.5 -59.5t-41.5 -24.5q-66 0 -99.5 11.5t-51.5 44.5q-29 61 -33 96z" />
<glyph unicode="A" horiz-adv-x="1415" d="M66 289q0 131 65 274l135 293q70 152 70 274q0 74 -10 111q-8 43 -48 131t-40 121q0 23 12 57q43 49 113.5 67.5t164.5 18.5h78l121 2h45h37q25 4 37 4q47 0 87 -2t74.5 -7t67.5 -14.5t72 -27.5q43 -41 43 -92q0 -35 -35 -109.5t-41 -111.5q-18 -78 -18 -143 q0 -129 63 -277l125 -285q33 -84 49.5 -161.5t16.5 -155.5q0 -82 -25 -133t-82 -78q-57 -23 -107.5 -33t-81 -14t-61.5 -4q-61 0 -106 12t-83 54t-57.5 107.5t-19.5 139.5q0 98 30.5 258t41 226.5t10.5 107.5q0 57 -22.5 101t-71.5 51q-47 0 -79 -19.5t-38 -54.5l-6 -53v-31 q0 -104 42 -287.5t42 -271.5q0 -74 -13.5 -129t-42 -113.5t-100 -82t-153.5 -23.5q-16 0 -37 1t-59 7t-71.5 23.5t-68.5 52.5q-25 31 -51 86q-6 35 -10 65.5t-4 67.5zM629 1305l30 -9l39 4l33 7q23 0 41 -13q18 6 19 35v51q-20 60 -86 60q-41 -12 -58.5 -49t-17.5 -86z" />
<glyph unicode="B" horiz-adv-x="1173" d="M53 201q0 133 60 284l118 314q59 160 60 301q-8 57 -20.5 108.5t-32 114.5t-76.5 143l-2 17v12q0 84 69 111q117 32 262 32h9q168 0 289.5 -44t150.5 -142l8 -57q0 -59 -15 -88t-32.5 -56.5t-46.5 -68.5q119 -168 157 -244t52 -113t35.5 -117.5t21.5 -166.5 q0 -131 -47 -242t-130 -180.5t-207 -101t-253 -31.5q-98 0 -172 14q-84 12 -129 39t-80.5 65.5t-48.5 96.5zM571.5 1350q18.5 -37 22.5 -60q29 10 46 41t17 68q-7 23 -31 37q-17 10 -35 10q-8 0 -16 -2q-22 -12 -22 -37q0 -20 18.5 -57zM575 858q0 -16 11 -27l30 -8l37 8 q23 6 41.5 43t18.5 89q0 35 -4 49q0 20 -26 40.5t-52 20.5q-21 0 -37 -8z" />
<glyph unicode="C" horiz-adv-x="987" d="M45 717q0 223 60.5 422.5t177.5 359.5q51 63 134 102t167 39q135 0 225 -88q29 -35 43 -88t14 -123q-8 -37 -33.5 -60.5t-54.5 -35.5l-39 -10q-47 0 -74.5 17.5t-35.5 56.5v24q0 20 -2 41t-9.5 43.5t-44.5 40.5q-43 0 -72.5 -30.5t-39.5 -77.5l-19 -86l-8 -86v-34 t7.5 -41.5t12.5 -40.5t17 -36q33 -43 73 -67.5t83 -24.5q29 0 55 10q14 8 53 55q31 47 64 48q20 0 37 -9q49 -98 78.5 -220t29.5 -245q0 -137 -38 -261t-99.5 -195.5t-102 -90t-79.5 -28.5t-86 -10l-35 2h-19q-121 0 -215 72.5t-159.5 242.5t-65.5 412z" />
<glyph unicode="D" horiz-adv-x="1079" d="M43 246q0 16 47 155l86 285q18 72 28.5 144.5t10.5 154.5q0 121 -31.5 224.5t-81 167t-49.5 104.5q0 39 22.5 71.5t114 60t224.5 27.5q143 0 247.5 -45.5t172.5 -156.5q198 -336 198 -697q0 -291 -131 -528q-68 -98 -188.5 -155.5t-255.5 -57.5l-97 6q-98 0 -179 40 t-109.5 102.5t-28.5 97.5zM489 1370q0 -47 2.5 -125t2.5 -108q0 -43 8 -92.5t20 -100.5q16 -4 25 -4q14 0 28.5 11.5t32 36t23.5 43t10 30.5l8 80q0 49 -5 72.5t-7 40t-17.5 47t-39 57t-52.5 26.5q-19 0 -39 -14z" />
<glyph unicode="E" horiz-adv-x="997" d="M45 244q0 121 49 266l103 289q51 150 51 260v63q-6 27 -10.5 56.5t-30.5 91.5l-60 114q-29 63 -28 115l6 49q47 53 121 78q82 20 172 21h62.5t66.5 -5l145 -8q25 0 41 -12q10 -4 35 -33q35 -37 56.5 -86t21.5 -90q0 -43 -21 -78q-20 -20 -53 -20q-29 0 -63 24l-60 64 q-45 39 -78 39q-14 0 -36.5 -10.5t-24.5 -42.5q0 -25 11 -38.5t93 -29.5q78 -12 78 -61l2 -48q0 -31 -4 -47t-35 -22l-30 2q-31 0 -57.5 -11.5t-39 -32t-12.5 -42.5q0 -68 35 -74l53 -6q43 0 102.5 71.5t81.5 71.5q20 0 58.5 -20.5t58.5 -104.5l39 -260v-96l2 -98 q0 -236 -21.5 -326t-67.5 -136t-134 -71q-96 -20 -195 -20q-104 0 -207.5 18.5t-156.5 52.5q-55 31 -87 75t-32 108z" />
<glyph unicode="F" horiz-adv-x="960" d="M45 295q0 127 59 272l123 297q63 156 64 275l-88 325q0 43 18.5 78t49 52.5t96.5 27.5l143 8q115 0 206 -19.5t136 -72.5q12 -12 27.5 -48t25.5 -67.5t10 -68.5q0 -33 -8 -58q-17 -28 -60 -28h-3l-37 6q-20 14 -74.5 77.5t-93.5 63.5q-14 0 -31.5 -7t-23.5 -19l-6 -21 q8 -45 90 -63q82 -12 82 -76q0 -47 -6.5 -68.5t-38.5 -40.5q-35 0 -50.5 -2t-38.5 -14q-31 -12 -38 -60q0 -119 63 -253l131 -269q66 -135 66 -248q0 -72 -21 -135q-55 -78 -142 -109.5t-202 -31.5l-113 6l-94 8q-72 20 -123 51t-80 89q-18 74 -18 143z" />
<glyph unicode="G" horiz-adv-x="1015" d="M47 727q0 367 131 659q117 223 357 261q29 0 60.5 -3.5t76.5 -19.5q65 -19 114 -68q31 -25 42.5 -58.5t15.5 -54t4 -46.5q0 -35 -4 -47l-8 -37q-2 -16 -44 -39t-87 -23q-43 0 -73 18.5t-30 63.5v31q0 27 -6 41t-27 20l-22 7q-31 0 -53.5 -27t-43 -73t-32.5 -95 q-8 -49 -9 -66.5t-1 -29.5q0 -61 18 -102.5t53 -67t74 -25.5q18 0 39.5 14.5t32.5 34.5q6 23 -6.5 42.5t-34.5 33.5h-31q-31 0 -37 19v26q0 31 9.5 54.5t31.5 35.5l78 2l82 2q72 0 111.5 -6t56 -11t45.5 -19l6 -107q0 -70 -8 -166l-6 -135l32 -381q18 -201 19 -272 q0 -27 -7.5 -49.5t-62.5 -32.5q-49 0 -82 26l-49 52q-68 -55 -143.5 -87t-171.5 -32q-113 0 -199 61.5t-133 173.5q-16 53 -30.5 107.5t-31 154t-16.5 240.5z" />
<glyph unicode="H" horiz-adv-x="1400" d="M61 305q0 106 84 340t84 402q0 86 -56 261t-60 205q0 43 30.5 76t98 45.5t137.5 12.5q135 -1 205 -52q18 -25 18 -63q0 -25 -14 -80l-13 -74q0 -33 14.5 -48t61.5 -27l43 -3l47 -2q43 0 71 13.5t28 46.5q0 8 -2 28.5t-9 47.5l-10 86q0 41 13.5 65.5t54.5 42.5l74 10l77 4 q25 0 54.5 -1t77 -15t75 -54t27.5 -79t-56.5 -172t-56.5 -248q0 -145 89 -450.5t89 -362.5v-57q-6 -23 -9 -36t-12 -32.5t-34 -54.5t-83 -58.5t-136 -23.5l-70 2l-82 8q-39 0 -78.5 36t-72.5 97q-31 92 -31 203q0 90 28.5 245.5t39 226.5t10.5 112q0 84 -19.5 151.5 t-76.5 67.5q-82 0 -119 -68q-12 -66 -12 -125q0 -55 10 -125.5t48 -238.5t38 -246q0 -29 -2 -58.5t-10.5 -71.5t-36 -105.5t-92 -87t-162.5 -23.5q-113 0 -182.5 30.5t-99.5 115.5t-30 161z" />
<glyph unicode="I" horiz-adv-x="757" d="M35 319q0 70 22.5 162t96 281.5t73.5 316.5v54q-6 27 -10 57.5t-20 64.5q-12 39 -50 113t-38 123q0 39 21.5 81t94 66.5t170.5 24.5q90 0 166 -18.5t94 -45.5l23 -59l8 -57q0 -37 -16.5 -86t-70.5 -163t-54 -169v-25.5t8 -43t91 -272.5t83 -384q0 -109 -39 -217 q-35 -66 -104.5 -97.5t-161.5 -31.5q-61 0 -119.5 12t-140.5 54t-113 126q-6 31 -10 64t-4 69z" />
<glyph unicode="J" horiz-adv-x="942" d="M39 592q0 104 18.5 212.5t57.5 209.5q23 43 69 43q23 0 43 -10l80 -80q31 -31 64 -31q23 0 41 10q39 35 51 68t16 53t4 47q0 59 -35.5 194.5t-35.5 172.5l-4 35q0 39 16 68.5t47 45.5l86 15l96 8q84 0 142.5 -25.5t89.5 -91.5l2 -43q0 -70 -69.5 -230.5t-69.5 -232.5 l4 -74q0 -35 57 -223l72 -246q18 -66 18 -155q0 -104 -43 -184t-156 -142q-90 -43 -211 -43q-45 0 -77.5 4t-71.5 19q-68 18 -138.5 95t-116.5 216t-46 295z" />
<glyph unicode="K" horiz-adv-x="1222" d="M55 205q0 141 102.5 414.5t102.5 388.5l2 36q0 82 -62.5 254t-62.5 242l2 43q74 86 213 86q115 0 193 -59q45 -45 45 -103q0 -37 -31 -115.5t-31 -117.5l2 -33l13 -29q8 -14 35 -16h14l24 8q31 25 43.5 63t12.5 85l-2 65v25q0 14 -4 43q0 57 21.5 95t86.5 56l57 21l74 8 q98 0 166 -49q41 -35 41 -103q0 -23 -6 -45t-28.5 -59t-159 -130t-170.5 -163q18 -66 138 -203t157.5 -196.5t80.5 -181t43 -242.5q0 -125 -32.5 -193.5t-88 -94t-122.5 -25.5q-74 0 -131.5 27.5t-94.5 94.5q-16 39 -26 99l-8 104q0 23 2 65t8 101l12 160q0 31 -2 51 t-10 82.5t-14.5 94.5t-16.5 50q-12 33 -53 39q-47 -18 -72 -65q-20 -47 -20 -103q0 -53 3 -77.5t5 -36t12 -43.5l47 -172q33 -125 33 -201q0 -96 -49 -182q-45 -45 -102.5 -68t-118.5 -23q-72 0 -152 27q-55 25 -76 70z" />
<glyph unicode="L" horiz-adv-x="983" d="M47 268q0 127 88 413t88 402q0 68 -77.5 210.5t-77.5 205.5q0 47 28.5 84t93.5 68l109 22l107 8q63 0 114 -13t103 -44q18 -16 18 -31v-24q-10 -45 -57 -154l-56 -135l-10 -51l-4 -58q0 -49 11.5 -79.5t24.5 -49t38 -41.5q7 -1 13 -1q37 0 54 32l41 72q18 31 52 33 q27 0 51 -17q98 -98 119 -299l20 -346q0 -231 -61.5 -337.5t-167.5 -143.5l-156 -8l-158 -9q-121 0 -203.5 36t-136.5 143z" />
<glyph unicode="M" horiz-adv-x="1462" d="M55 233q0 29 2 61t9 64l49 226l106 442v27q0 14 -3 39.5t-6 38t-11 34.5q-8 35 -29.5 81t-55.5 120t-34 135q0 39 8 62q6 29 35 61q76 63 199 64q98 0 183 -41t134 -123l21 -49l30 -68q37 88 113 154.5t176 97.5l53 8l60 2q72 0 131 -24.5t92 -83.5q0 -84 -75 -254 t-75 -244q0 -35 58 -227l170 -557q0 -94 -39 -167t-142 -141l-73 -14l-86 -6q-90 0 -163 31.5t-114 105.5q-30 78 -30 166v6q0 90 87 329.5t87 344.5q0 82 -27 160q-14 27 -39 26q-12 0 -29 -10q-12 -23 -18 -59l-6 -70l6 -102l6 -103q0 -82 -41 -129q-37 -49 -92 -49 q-45 0 -81 46t-36 132l6 90l9 99q0 37 -3.5 51t-13.5 45q-12 51 -45 51q-16 0 -32.5 -23.5t-22.5 -48.5l-4 -45l6 -77l6 -72l188 -604q0 -76 -31.5 -140.5t-111.5 -124.5l-82 -10l-84 -4l-94 6q-43 6 -95 31t-79 91.5t-27 141.5z" />
<glyph unicode="N" horiz-adv-x="1325" d="M61 240v30q0 123 68 328t90.5 301t22.5 156q0 37 -4.5 66.5t-18.5 82.5t-59 129l-43 103q-12 35 -13 77q0 39 15 68q41 45 107.5 70.5t140.5 25.5q68 0 122 -19.5t97 -62.5q80 -139 145 -370l92 -338q31 -109 49 -113q10 10 11 19q0 172 -38 335.5t-75 264t-37 116.5 q0 45 34 86t81 50l84 14l80 6q66 0 117 -19.5t92 -68.5l8 -61q0 -55 -69.5 -213t-69.5 -226l2 -41q0 -127 86 -405.5t86 -386.5l-7 -94q-2 -16 -8 -44t-14 -51q-33 -41 -87 -62.5t-110 -21.5h-26q-14 0 -38 3t-47.5 7.5t-70.5 16.5q-59 37 -94 123q-12 51 -23.5 92t-17.5 57 l-78 396q-37 203 -98 362l-13 14q-2 2 -14 5q-49 -31 -49 -115q0 -31 4 -53.5t51 -178.5l135 -446q0 -78 -31.5 -143.5t-109.5 -122.5l-94 -15l-82 -4q-90 0 -147 29q-55 20 -81 69.5t-51 135.5z" />
<glyph unicode="O" horiz-adv-x="1058" d="M49 664l6 170q0 49 12.5 124.5t20.5 131.5q84 283 146.5 405.5t162.5 140.5l123 19l49 2q57 0 102.5 -16.5t88.5 -63.5q117 -131 179 -340t62 -641v-199q-18 -141 -80.5 -251.5t-175.5 -165.5q-49 -20 -101 -30.5t-116 -10.5q-78 0 -140 16t-146 93t-138.5 247t-54.5 369 zM422 1096q0 -33 30.5 -49.5t71.5 -16.5q43 0 72 17.5t29 48.5v84v30v23q-4 14 -4 20q0 29 -15 70q-12 47 -28.5 71.5t-53.5 24.5t-59.5 -33.5t-30.5 -66.5l-10 -72l-2 -59v-92z" />
<glyph unicode="P" horiz-adv-x="933" d="M43 1479q0 47 23.5 80.5t74.5 62.5l185 33q74 12 157 12q129 0 229.5 -43t157.5 -149q20 -51 21 -99q0 -53 -22.5 -109.5t-58.5 -96.5t-171 -127t-154 -185q0 -131 129 -345t129 -329q0 -57 -20 -110q-47 -51 -129 -84q-84 -27 -176 -27q-59 0 -116.5 9.5t-81 14.5 t-67.5 20.5t-75 58.5t-31 98q0 115 31 268l61 313q33 170 33 279q0 123 -28.5 226.5t-96.5 191.5zM419 1345q1 -10 11 -51t10 -63l-2 -19h15q37 25 57 68t20 80q0 20 -4 31q0 16 -22 36q-19 23 -60 23q-26 -30 -26 -69q0 -26 1 -36z" />
<glyph unicode="Q" horiz-adv-x="1118" d="M51 741q0 102 12.5 199.5t54.5 251.5t109.5 270.5t124 149.5t95 45t79.5 12q59 0 105 -22q49 -19 88 -64q127 -174 199.5 -407.5t72.5 -473.5q0 -250 -76 -475l-100 -159l6 -25q25 -31 123 -44t110.5 -52t12.5 -58q0 -35 -17.5 -55t-38 -36.5t-48.5 -33.5l-45 -6 q-90 0 -154 59.5t-146 176.5q-51 -14 -98 -14q-80 0 -145.5 32.5t-128.5 98.5q-98 121 -146.5 288.5t-48.5 341.5zM410 1223q0 -61 9 -100.5t38 -80.5q23 23 67 33l94 8q10 10 17 39l4 64l-6 98l-15 78q-6 41 -28.5 66.5t-57.5 29.5q-71 0 -108 -119q-14 -57 -14 -116z" />
<glyph unicode="R" horiz-adv-x="1193" d="M55 244v36.5t4 45.5l9 84q63 170 99 319.5t36 292.5q0 131 -32 235.5t-112 200.5l-2 12v11q0 35 24.5 59.5t76.5 56.5q78 25 136 34t98 13.5t83 4.5q127 0 228.5 -41.5t156.5 -139.5l8 -61q0 -66 -22.5 -105.5t-47 -76.5t-63.5 -86l211 -244q84 -131 138.5 -283.5 t54.5 -304.5q0 -61 -3 -85.5t-14 -65.5q-6 -41 -16 -72t-31 -70q-29 -35 -69.5 -52t-94.5 -17q-14 0 -36.5 2t-69.5 9t-96.5 96t-63.5 144.5t-21.5 88t-7.5 57.5l-2 66l7 147l8 131q0 59 -4 87t-9.5 48.5t-16.5 46t-44 25.5q-16 0 -26.5 -15.5t-10.5 -52.5l-6 -67 q0 -70 23 -189l28 -149q23 -80 23 -187q0 -31 -1 -65.5t-16 -81.5q-12 -61 -82.5 -101t-177.5 -40q-72 0 -139 37q-59 37 -90 102q-25 68 -25 160zM420 1417l41 -229l20 -8q12 0 29 16l22 25l33 73l4 43l-6 43q-6 23 -29.5 38.5t-58.5 19.5q-32 -1 -55 -21z" />
<glyph unicode="S" horiz-adv-x="966" d="M49 584q0 150 16.5 225.5t45.5 130.5l36 8q20 0 76 -21.5t82 -25.5q23 0 39 10.5t37 42.5q-12 86 -132 200t-120 214v25q0 63 37 115.5t106 97.5q94 41 203 41q104 0 185.5 -38t130.5 -120q18 -35 18 -72q0 -35 -8 -57.5t-37 -62.5t-98 -40q-39 0 -70 17q-16 16 -47 119 q-25 102 -86 102l-37 -6q-39 -12 -55.5 -37t-22.5 -41t-6 -35q0 -18 13.5 -37.5t230.5 -151.5t260 -239q78 -150 78 -344q0 -137 -28 -233.5t-54.5 -151.5t-63.5 -108q-59 -61 -143 -99q-45 -16 -85 -24t-89 -8q-84 0 -148 20q-102 39 -165.5 133t-94.5 221l-2 109z" />
<glyph unicode="T" horiz-adv-x="831" d="M41 1364q0 49 4 85t20.5 90t79.5 95q12 4 47 8.5t52 4.5l170 4l178 -2q70 0 102 -9q61 -37 76.5 -89t22 -93t6.5 -94l-2 -80l-2 -76q-14 -68 -95 -82q-49 18 -69 84l-21 119l-16 47q-8 18 -31 41q-12 6 -25.5 -4t-19.5 -29q0 -147 55 -325l111 -352q55 -176 55 -324 q0 -133 -31.5 -224t-129.5 -147q-68 -43 -168 -43q-51 0 -72 3t-57 14q-63 12 -123 45q-61 39 -88 105.5t-27 156.5v74q6 35 8 51l12 100q16 66 131 348.5t115 448.5l-2 37v24q0 12 -12 24.5t-37 6.5q-18 -29 -35 -144.5t-84 -142.5q-76 12 -94 82l-2 76z" />
<glyph unicode="U" horiz-adv-x="1122" d="M51 1509l2 41l15 37q27 37 77 56.5t107 19.5q66 0 117 -16.5t86 -47.5q23 -33 38 -77.5t15 -79.5q0 -57 -17.5 -127t-27.5 -127.5t-10 -73.5q0 -43 8 -74q8 -18 37.5 -31.5t62.5 -13.5q47 0 81 17.5t44 56.5l8 64q0 57 -33.5 194t-33.5 164q0 74 50 116t175 42 q117 0 164 -41q47 -37 47 -113q0 -53 -31 -139l-63 -174q-23 -78 -23 -170q0 -115 41 -332t41 -309q0 -150 -71.5 -245t-258.5 -134h-63l-64 -2q-199 0 -283.5 40t-137.5 122q-37 72 -56 145q-6 39 -10 78t-4 82q0 96 27.5 264t38 243.5t10.5 116.5l-2 76q0 23 -13 78z" />
<glyph unicode="V" horiz-adv-x="1265" d="M57 1452v29q0 70 47 104q90 57 209 57q78 0 143.5 -28t102.5 -96q6 -23 10 -46.5t4 -56.5q0 -57 -20 -174l-21 -158q0 -47 16.5 -94t43.5 -80q25 -25 51 -24q23 0 53 24q25 25 45.5 71t20.5 110q0 61 -31 177.5t-31 166.5q0 55 26 101t97 81q78 16 148 16q45 0 64.5 -2 t54.5 -14q55 -12 98 -49q22 -32 22 -69q0 -36 -14 -77l-27 -75q-96 -195 -152 -325t-95 -289t-39 -326v-62l8 -88q0 -45 -8.5 -77t-40 -87t-105.5 -88q-43 -27 -94 -27q-80 0 -139 54q-68 55 -93.5 137t-25.5 201l2 92l2 96l-2 88q0 29 -12 70q-8 61 -23.5 119.5 t-49.5 141.5t-138 275z" />
<glyph unicode="W" horiz-adv-x="1341" d="M61 1513q0 27 11 58q41 41 91 58.5t85 23.5t76 6l63 -4l72 -10q23 -8 33 -25l12 -27l6 -45q0 -33 -14 -78l-21 -73l-6 -49l-2 -37q0 -70 29 -70q18 0 40.5 41t22.5 92q0 98 18.5 159.5t55.5 81t59 23.5q23 0 46.5 -16t31.5 -45l4 -127q0 -55 19.5 -117.5t58.5 -62.5 q33 0 33 78l-2 24v19l-15 65l-6 57q0 35 12.5 62t49.5 51q68 25 135 25q76 0 153 -33q25 -25 37.5 -49.5t12.5 -55.5q0 -49 -33 -109.5t-58.5 -117.5t-35 -84.5t-17.5 -83.5l-8 -104q0 -123 85 -402.5t85 -400.5l-2 -37v-24q-33 -76 -63.5 -108t-84 -51.5t-116.5 -19.5 q-94 0 -185 52q-74 55 -104.5 129.5t-30.5 162.5q0 74 25.5 227.5t25.5 207.5q0 111 -28 165q-25 59 -66 60q-25 0 -42 -21.5t-23 -60.5l-4 -62l6 -86l6 -88l18 -157l9 -146q0 -135 -32 -228t-110 -124q-74 -25 -141 -25q-88 0 -149.5 41t-92.5 97q-25 53 -24 116 q0 127 75.5 410t75.5 383q0 68 -11 127t-40 123q-6 37 -59 110q-51 80 -52 129z" />
<glyph unicode="X" horiz-adv-x="1228" d="M57 254q0 84 12.5 161t55.5 200.5t109.5 239.5t214.5 341q-27 78 -130 164l-217 180q-6 29 11.5 53.5t72.5 48.5q10 0 33 2.5t49 8.5l80 10q39 0 60 -10q23 -6 49 -37l84 -113q32 -43 77 -63q27 35 53.5 69.5t68.5 81.5t114 60q76 0 116 -6.5t76.5 -31t36.5 -52.5 q0 -25 -22 -45l-39 -39l-115 -97q-96 -78 -135 -151q133 -197 215 -351.5t146 -342.5l43 -308q0 -82 -26 -140t-93 -101q-90 -27 -156 -27q-51 0 -91 11.5t-83 41.5q-31 37 -49 80q-6 23 -10 44.5t-4 43.5q0 29 4 58.5t23.5 118.5t19.5 139v30q0 193 -25 283q-20 86 -76 164 q-47 -47 -68.5 -124t-21.5 -159l6 -127q0 -41 5.5 -73.5t11.5 -65.5l24 -123q6 -33 10.5 -59.5t4.5 -51.5l-7 -69q-6 -31 -26 -62q-41 -47 -102.5 -69.5t-141.5 -30.5q-90 10 -148.5 40t-86.5 99q-12 80 -13 156z" />
<glyph unicode="Y" horiz-adv-x="1015" d="M47 1530q0 35 12 78q25 25 62 37t86 12q33 0 53 -4l59 -11q37 -12 54 -28q18 -12 26 -47l4 -56l-2 -53l-2 -47q0 -78 26 -119t62 -41q41 0 68 33t33 59.5t6 61.5l-2 41v43q0 59 14.5 93t63.5 52l63 11l66 6q55 0 98 -19q41 -14 72 -57l6 -37q0 -59 -133 -236.5 t-151.5 -219.5t-18.5 -99q0 -84 68.5 -229.5t78.5 -221.5l15 -96l6 -100q0 -78 -16.5 -139.5t-63.5 -124.5q-49 -49 -119 -75t-147 -26q-45 0 -85 6.5t-81 22.5q-166 84 -187.5 183.5t-25.5 124t-4 52.5q0 119 107.5 322t107.5 315l-7 70q-18 43 -145 203t-127 260z" />
<glyph unicode="Z" horiz-adv-x="890" d="M41 319q0 76 8 172.5t27 208.5l41 299q41 72 196 236l162 170q0 20 -14.5 37.5t-38.5 23.5q-70 0 -139.5 -100t-122.5 -100q-25 0 -68 18l-35 131l-8 96q0 57 17 97q72 23 141 34t114.5 15t96.5 4q190 0 350 -53l45 -52q12 -29 12 -53q0 -47 -49 -102l-90 -96 q-20 -31 -106 -107l-103 -100l-31 -51q-6 -16 -10 -52q0 -59 56 -59q14 0 32.5 12.5t44 64.5t44 75.5t44.5 23.5q18 0 54 -18l34 -45q0 -115 52.5 -401t52.5 -400q0 -88 -14 -162q-37 -70 -109 -109q-31 0 -43 5h-29l-133 -7l-151 -8q-113 0 -189 29t-125 117l-12 96z" />
<glyph unicode="a" horiz-adv-x="866" d="M39 334q0 51 2 77.5t14 77.5q0 76 30 148t108.5 173t232.5 153q47 29 47 84q0 20 -13.5 42.5t-47.5 22.5q-12 0 -33 -10t-48.5 -79t-56.5 -81l-47 -8q-29 0 -52 11t-34 38l-6 37l-2 29q0 61 38 116.5t124 91t184 35.5q66 0 119 -16t90 -41q37 -20 55 -61 q0 -57 -36.5 -195.5t-36.5 -190.5q0 -68 43 -156.5t79.5 -196t36.5 -216.5q0 -55 -12 -117q-59 -59 -149 -88.5t-195 -29.5q-47 0 -71.5 2t-89 13t-130.5 36q-74 43 -100.5 103.5t-34.5 101.5t-8 94zM342 647l2 -37q0 -69 66 -69h2q18 29 26 77l8 107v68q0 10 -12 10 q-16 -6 -22 -10q-35 -16 -52.5 -55.5t-17.5 -90.5z" />
<glyph unicode="b" horiz-adv-x="866" d="M41 1528q0 72 70 102l88 10l71 5q53 0 86 -10.5t39 -45.5q0 -61 -36.5 -195t-36.5 -184q16 -27 47 -28q25 0 84 32l75 39q12 6 39 7q41 0 71 -21.5t72 -129.5t70.5 -239t38.5 -215t10 -170q0 -109 -16 -202t-53 -174q-59 -76 -140 -106t-186 -30h-31q-12 0 -28.5 2 t-26.5 2l-102 11q-61 12 -113.5 54t-75.5 101q0 127 56.5 419t56.5 396l-6 113q0 53 -2 76.5t-13.5 70t-57.5 164t-50 146.5zM414 952l4 -73l6 -56q0 -33 -8 -57q0 -16 11 -25.5t34 -13.5l22 6q31 35 51.5 74t20.5 78l-4 35q-18 61 -38.5 89.5t-43.5 28.5q-20 0 -35.5 -26.5 t-19.5 -59.5z" />
<glyph unicode="c" horiz-adv-x="858" d="M41 532v49.5t4 63.5l10 135q12 76 29.5 134.5t60.5 141.5t148 156q45 25 85 34t64.5 13.5t53.5 4.5q66 0 111.5 -24t68.5 -83q20 -72 20 -110q0 -66 -39 -113q-47 -27 -94 -27q-29 0 -57 13q-10 14 -21 88q0 73 -44 73h-1l-28 -4q-43 -37 -62.5 -94t-19.5 -123 q0 -49 30.5 -91t77.5 -56q23 -10 54 -15q35 0 103.5 41t90.5 41q20 0 39 -8q45 -68 68.5 -159t23.5 -185q0 -186 -82 -319q-49 -70 -128 -103t-177 -33q-47 0 -69.5 2t-63.5 13q-139 76 -197.5 216t-58.5 328z" />
<glyph unicode="d" horiz-adv-x="913" d="M41 557q0 201 34 369t120 299q26 32 72 32h3q31 0 54 -16q47 -41 106 -41l43 6q25 31 25 78t-35 132t-35 120q0 33 19.5 58.5t70.5 41t98 15.5q99 -1 177 -54l16 -10q8 -12 8 -18l-26 -72q-25 -61 -54.5 -205.5t-29.5 -273.5q0 -117 18 -220.5t63.5 -210t69 -179 t23.5 -148.5q0 -90 -50 -176q-63 -57 -156 -88t-194 -31q-29 0 -60.5 1t-96 16.5t-129.5 44.5q-72 59 -113 174.5t-41 355.5zM317 850l7 -64l36 -55q14 -13 37 -13q8 0 17 1q33 0 46 9q9 6 9 23q0 8 -2 17q-12 18 -12 66l2 53l2 59q0 29 -18.5 49.5t-41.5 22.5 q-40 0 -65 -68l-12 -51z" />
<glyph unicode="e" horiz-adv-x="880" d="M39 569q0 162 37 300.5t87 217t134 140.5q78 49 182 49q68 0 118 -16.5t93 -55.5q49 -37 55 -98l7 -105q-31 -61 -56.5 -86.5t-60.5 -33.5q-25 -25 -86 -25l-76 6l-72 6q-37 0 -55 -11t-18 -46q0 -23 10 -53q16 -25 38.5 -34t61.5 -13q35 0 49 4l48 6q27 4 81 63.5 t80 59.5q14 0 39 -19q61 -92 82 -215t21 -297q-20 -209 -211 -303q-79 -28 -174 -28h-7q-63 0 -114 13t-96 42q-96 98 -134.5 200.5t-50.5 176t-12 155.5zM319 1010h213q16 0 24 14q5 9 4 21q0 6 -1 14q-12 27 -36.5 39t-57.5 12l-39 -2q-25 0 -39 -4q-29 -12 -51 -36 q-18 -20 -18 -48q0 -5 1 -10z" />
<glyph unicode="f" horiz-adv-x="827" d="M37 1116q0 51 6 81t37 44h57q27 0 42.5 6t17.5 33l-4 37l-5 69q0 47 2.5 67t17.5 61.5t62 74.5q33 29 69 40t59.5 15.5t50.5 4.5q33 0 60.5 -4.5t79.5 -19.5t105 -46q47 -41 70.5 -94t23.5 -125q0 -35 -26.5 -60.5t-67.5 -25.5q-31 0 -59.5 12t-40.5 41l-10 62 q0 23 -19.5 28.5t-32.5 5.5q-20 0 -37.5 -21.5t-17.5 -60.5q0 -18 1 -34.5t10.5 -41t35.5 -24.5h45q35 0 58 -6q18 -2 35 -29l-3 -41q0 -61 -5 -83.5t-42 -39.5h-45t-43.5 -7t-38.5 -46q0 -147 113 -462.5t113 -344.5q0 -41 -7.5 -70.5t-35 -74.5t-101.5 -64l-104 -14 l-84 -4q-74 0 -124 13.5t-93 54.5q-35 47 -58 106q-18 59 -18 113q0 84 76 299l76 219l2 80l4 51q0 57 -13.5 94t-58.5 64l-88 8q-47 0 -47 59z" />
<glyph unicode="g" horiz-adv-x="952" d="M43 385l12 131q0 51 14.5 108.5t43.5 92.5q25 37 71 37q43 0 109 -45q66 -31 121 -31q53 0 104 27q39 35 39 77l-6 31l-76 8l-65 -6l-64 -12l-47 -6q-45 0 -86 30.5t-65.5 61.5t-34 58.5t-9.5 66.5q0 86 41 145q63 66 164 101.5t207 35.5q150 0 272 -57q44 -25 52 -76 q0 -66 -42 -179.5t-42 -168.5q0 -47 41 -182l112 -379q0 -66 -22 -113q-18 -49 -80 -98q-57 -35 -136 -55.5t-159 -20.5q-68 0 -118 8.5t-81.5 16.5t-97 37.5t-119 132t-53.5 223.5zM352 1018l27 -19l35 -4l28 2q20 0 33 4l51 -6l52 -6q27 0 27 20q0 4 -1 9q-12 35 -51 59 q-41 20 -84 21l-49 -6q-27 -6 -47.5 -25.5t-20.5 -48.5z" />
<glyph unicode="h" horiz-adv-x="1103" d="M49 137q0 125 51 273l105 301q53 154 53 268q0 61 -10 108q-6 53 -19.5 84t-28 61t-59.5 116t-45 145q0 57 37 117q25 25 71 39t93 14q72 0 119 -23q49 -18 63 -63l2 -31q0 -37 -36.5 -128t-36.5 -118l8 -51q6 -35 65 -35l29 3l51 16l86 22q43 12 84 13q35 0 69 -11.5 t68 -44.5l17 -47l6 -51q0 -20 -6 -56t-23 -93q-27 -113 -26 -152l2 -45q0 -12 57 -170l158 -434q2 -11 2 -22q0 -46 -32 -92q-40 -58 -105 -70l-58 -3l-63 -2q-66 0 -110 16.5t-69 69.5l-26 125l-8 136q0 41 6 124.5t6 118.5l12 193v47v43q-4 16 -4 22q0 25 -3 36.5 t-15.5 54.5t-28.5 45q-18 0 -33.5 -37t-25.5 -101l4 -131l10 -149q0 -20 2 -60.5t8 -97.5l10 -154q0 -82 -13 -137t-56 -110q-33 -29 -70 -41.5t-59.5 -16.5t-52.5 -4q-33 0 -51.5 2t-61.5 13.5t-81 55.5t-38 99z" />
<glyph unicode="i" horiz-adv-x="667" d="M29 207q0 94 88 285.5t88 291.5l-2 43l4 31q0 47 -49 141.5t-49 133.5q0 29 17 54t69 54l73 8l76 6q61 0 108 -18t78 -63l7 -50q0 -49 -45.5 -157.5t-45.5 -165.5l-2 -43q0 -98 95.5 -292t95.5 -276q0 -59 -36 -116.5t-126 -106.5q-68 -28 -150 -28h-6q-117 0 -194 51 q-49 53 -74 104q-8 23 -14 53.5t-6 59.5zM156 1473q0 74 48 134t126 60q70 0 132 -44t62 -110q0 -84 -42 -149.5t-109 -65.5q-88 0 -152.5 47.5t-64.5 127.5z" />
<glyph unicode="j" horiz-adv-x="847" d="M39 463l2 102l14 146q12 98 29.5 145t77.5 84l28 6q35 0 84 -61q43 -61 82 -62q23 0 64 18.5t41 76.5l-6 47l-19 49l-28 63q-12 31 -13 60q0 29 15 55q66 72 184 72q98 -1 143 -64q12 -23 13 -47q0 -20 -3.5 -31.5t-13.5 -38.5l-35 -92l-26 -100l-8 -86q0 -49 41 -193 l106 -387q0 -63 -23 -114q-16 -49 -73 -103q-49 -37 -117 -55.5t-143 -18.5q-68 0 -115 7l-66 14q-133 66 -184 198t-51 310zM432 1483q0 70 46 119t114 49q70 0 117 -47q51 -45 51 -113q0 -70 -45 -118t-115 -48q-68 0 -118 46t-50 112z" />
<glyph unicode="k" horiz-adv-x="1050" d="M49 199v61q6 29 9 53.5t5.5 41t10.5 42.5l76 271q65 228 65 380q0 93 -14 166l-88 310q0 39 14 68.5t51 60.5l80 10l61 4q61 0 104.5 -18.5t68.5 -69.5l2 -39q0 -25 -6.5 -59.5t-22.5 -87.5q-27 -106 -27 -142l-6 -102q0 -90 25 -180q39 27 112.5 179t171.5 152h25.5 t36.5 -8q51 0 86 -11t57 -48q0 -80 -110.5 -151.5t-135.5 -104.5l-41 -47q-12 -16 -14 -47l6 -29q154 -129 226.5 -251t99.5 -207t27 -173q0 -80 -25 -160q-27 -39 -71 -59t-105 -31q-78 0 -130 19.5t-81 75.5q-16 49 -27 116l-6 131v68l2 70q0 94 -12 158.5t-57 140.5 l-19 8q-12 0 -21.5 -11.5t-13.5 -29.5q0 -96 33 -275.5t33 -257.5q0 -61 -12 -129q-14 -41 -69.5 -65.5t-123.5 -24.5q-92 0 -166 33q-43 29 -63.5 79t-20.5 120z" />
<glyph unicode="l" horiz-adv-x="684" d="M31 246v69q6 27 10 53.5t41 141.5l90 287q53 178 53 313q0 98 -23.5 178t-82.5 162q-12 29 -13 55q0 45 24 78t65 47l79 17l80 6q72 0 126 -25t85 -84q12 -37 13 -82q0 -43 -13 -61q-66 -78 -100 -172q-29 -90 -29 -193q0 -127 29 -229t108.5 -310t79.5 -253 q0 -106 -53 -181q-49 -41 -130 -65.5t-159 -24.5q-147 0 -215 62q-33 39 -51 94q-6 27 -10 55.5t-4 61.5z" />
<glyph unicode="m" horiz-adv-x="1433" d="M66 197q0 14 81.5 269t81.5 353l-6 80l-92 174q-35 76 -35 144l2 36q31 35 92 35q37 0 60 -20l67 -90q8 4 60 61q43 55 86 55h53q47 0 76.5 -7t54.5 -34l76 -127q37 63 86 99.5t85 48.5t77 12q111 0 172 -7t76 -34l20 -53l6 -51q0 -51 -35.5 -162t-35.5 -152 q0 -53 12 -88l96 -237q86 -203 86 -281q0 -47 -9 -82t-20.5 -56.5t-29.5 -47.5q-20 -20 -68 -41q-23 -6 -41 -10t-43 -4l-45 4q-25 0 -51 10q-70 37 -105 117q-30 78 -30 174v6l41 500q0 135 -16.5 187t-41.5 52q-18 0 -37 -41l-24 -102l-8 -127q0 -88 20 -258l21 -238v-74 q-6 -33 -9.5 -59.5t-7.5 -44.5t-18.5 -50t-41 -43t-61.5 -16q-37 0 -61 17q-61 55 -87 123.5t-26 161.5q0 68 21 210l20 205q0 109 -12 193t-35 110q-18 31 -47 33q-59 0 -59 -127l2 -80q0 -49 4 -78q0 -80 37 -251.5t37 -257.5l-7 -93q-6 -39 -26 -82q-29 -35 -66 -50 t-61.5 -19t-59.5 -4l-73 6l-78 16q-43 23 -74 76q-16 35 -21 60.5t-5 50.5z" />
<glyph unicode="n" horiz-adv-x="1058" d="M47 141q0 113 94.5 349.5t94.5 316.5l-7 76l-18 69q-10 27 -59.5 100.5t-49.5 112.5q0 20 7.5 38t27 39.5t68.5 21.5q39 0 69 -15l31 -47q14 -25 39 -12q37 57 98.5 81.5t149.5 24.5h34.5t45.5 -4l80 -8q33 0 49 -16.5t28.5 -36t22.5 -35.5l4 -49q0 -45 -31.5 -149.5 t-31.5 -151.5q0 -27 2 -43.5t14 -59.5t106.5 -269t94.5 -359q0 -33 -31 -61.5t-78 -47.5l-76 -12l-67 -6q-72 0 -123 30.5t-76 85.5q-20 61 -20 134l4 104l6 80l33 254q6 51 10 99t4 85q0 84 -12.5 144.5t-59.5 60.5q-49 0 -63 -59l-6 -144q0 -51 2 -105.5t8 -113.5l20 -197 l11 -131l4 -61q0 -104 -19.5 -171t-52.5 -79l-88 -22q-55 -12 -104 -13q-57 0 -100.5 19.5t-61 57.5t-27.5 95z" />
<glyph unicode="o" horiz-adv-x="837" d="M39 584q0 88 10 163.5t47 201.5t121 259q31 41 80 71t102 30q70 0 116 -13.5t89 -54.5q96 -123 145.5 -296t49.5 -357q0 -180 -41 -338q-35 -100 -107.5 -174t-171.5 -86q-166 0 -245.5 61.5t-129.5 167.5q-31 82 -44 152.5t-17 114.5t-4 98zM350 907q0 -39 7.5 -63.5 t33.5 -32.5l53 -8q29 0 45.5 6t22.5 27v92q-6 33 -10 66.5t-35 88.5q-10 25 -37 25q-30 0 -53 -29l-21 -92z" />
<glyph unicode="p" horiz-adv-x="890" d="M33 207q0 53 12 107.5t41 115.5l86 182q31 66 31 127q0 70 -68.5 222.5t-68.5 220.5q47 68 133 98.5t190 30.5q94 0 189 -21q84 -23 148 -62.5t95 -105.5l21 -57l8 -59q0 -31 -12 -62q-6 -33 -39 -65.5t-72 -51.5q-16 -10 -148.5 -24.5t-162.5 -102.5q0 -90 92 -295.5 t92 -304.5q0 -35 -30.5 -60.5t-71.5 -41.5l-127 -12l-90 -4q-78 0 -129.5 12t-74 47t-32.5 78t-11 60.5t-1 27.5zM385 1073l6 -63l17 -66q12 -6 18 -6q20 0 39 16l45 47q25 31 25 68l-7 25q-6 10 -30 20l-56 8h-34q-23 -12 -23 -49z" />
<glyph unicode="q" horiz-adv-x="987" d="M45 1057l2 37q-1 7 -1 13q0 40 31 79q36 45 83 78q141 55 311 55q115 0 214 -27t173 -86l-131 -442q0 -51 15.5 -94t52.5 -90q66 -47 106.5 -102.5t40.5 -121.5q0 -27 -12 -63q-31 -117 -118 -204t-206 -99l-67 -6q-123 0 -203 73q-20 27 -41 76q-12 43 -12 90 q0 43 2 63.5t12 55.5t20.5 64.5t26.5 64.5q8 29 71.5 153t71.5 203q-20 12 -63 23l-76 6l-43 -2h-41q-53 0 -92 12.5t-72 51.5q-29 23 -42 59.5t-13 79.5zM371 1094q12 -31 42.5 -54.5t106.5 -35.5q23 12 31 49l14 80q-16 23 -44.5 34t-61.5 11h-25l-22 -4q-43 -23 -43 -63 q0 -8 2 -17z" />
<glyph unicode="r" horiz-adv-x="802" d="M37 205q0 76 74.5 260t84 222t9.5 81q0 74 -39 170l-45 98l-31 76q-12 39 -16 78q0 33 17.5 56.5t62.5 35.5t75 12q45 0 82.5 -20.5t53.5 -63.5v-32q8 -12 16 -17l104 80q66 43 125 43h23q49 -10 66.5 -30.5t37.5 -69.5l31 -199q0 -35 -10 -68.5t-44 -65.5t-91 -32 q-29 0 -56 10q-35 18 -35 64l7 47l10 41q0 20 -27 23q-29 0 -48 -32t-32.5 -84t-13.5 -102q0 -100 64 -254l141 -337l2 -33q0 -98 -76 -134t-121 -44l-98 -9q-80 0 -146.5 19.5t-109.5 58.5q-47 70 -47 152z" />
<glyph unicode="s" horiz-adv-x="772" d="M35 465q0 162 30.5 250t63.5 88q18 0 31 -21l24 -41q12 -20 43 -30q51 0 72 41q0 70 -94 136t-101 107l-4 64q0 53 25 104t91.5 93t174.5 42q47 0 94 -11t80 -36q80 -49 80 -166q0 -41 -12 -84q0 -20 -17 -30l-34 -19l-37 -6q-78 0 -96 70l2 12v10q0 53 -43 78 q-12 4 -19 4q-16 0 -38.5 -13t-22.5 -38q10 -68 86 -123l137 -84q100 -68 132 -160t42 -159.5t10 -151.5q-8 -63 -25.5 -121.5t-57.5 -135.5t-142 -126q-78 -20 -139 -20t-109.5 13t-91.5 52q-66 72 -102 180q-16 57 -24.5 109.5t-8.5 122.5z" />
<glyph unicode="t" horiz-adv-x="686" d="M33 1114l4 37l10 45q6 25 35 27l18 -2q33 0 50.5 17t19.5 44q0 20 -3 32.5t-17.5 51.5t-14.5 57q0 33 23 56q68 39 157 39q105 -1 189 -52q6 -10 10 -36q0 -31 -31.5 -87.5t-31.5 -78.5q0 -16 12 -33q8 -6 51 -17l43 3q37 0 59 -21l11 -49l4 -33q0 -25 -15 -45 q-14 -10 -94 -22q-72 0 -82 -50l-6 -53v-22q0 -127 109.5 -342t109.5 -326q0 -33 -4 -53.5t-8 -46t-25 -66.5q-37 -61 -106.5 -89t-147.5 -28q-92 0 -196 33q-57 37 -87 101.5t-30 138.5q0 55 10 94l76 231q31 92 47.5 170t16.5 144q0 72 -15 129q-14 18 -82.5 37.5 t-68.5 64.5z" />
<glyph unicode="u" horiz-adv-x="890" d="M41 1139q0 37 10 63q27 49 80 69.5t115 20.5q51 -6 94 -30q43 -19 61 -68l13 -43l4 -47q0 -55 -29 -159.5t-29 -135.5l2 -43q0 -14 9.5 -39t31.5 -37l52 -8q33 0 63 12q27 16 38 41t11 60l-6 61l-10 68l-64 213q0 49 37 92q70 63 181 63q45 0 80.5 -21.5t62.5 -62.5 l2 -24v-25q0 -61 -43 -222t-43 -226l2 -64l18 -74l39 -124q25 -92 25 -160q0 -59 -16.5 -109.5t-66.5 -94.5t-134 -73q-77 -22 -163 -22h-7q-113 0 -202 24.5t-124 63.5t-45 56.5t-18 41.5l-11 53v23q0 63 32 192t44.5 197t12.5 102q0 51 -11 91q-6 47 -28 86l-39 98 q-31 78 -31 121z" />
<glyph unicode="v" horiz-adv-x="1028" d="M47 1114q0 27 12.5 62.5t52.5 61.5t85 36l55 6q45 0 81 -11.5t50 -18.5t43 -25q41 -35 56.5 -81t15.5 -104l-6 -102l-5 -76q0 -125 50 -125q47 0 47 123q0 29 -4.5 59.5t-6.5 49.5l-10 104q0 59 23.5 103.5t95.5 80.5q43 12 94 13h45q23 -6 46.5 -10.5t68.5 -38 t45 -113.5l-6 -49l-123 -252q-20 -43 -43 -101.5t-49.5 -133t-57.5 -212.5l-26 -196q-31 -143 -78 -164q-37 -12 -72 -16q-33 0 -58.5 15t-47.5 42q-61 98 -86 329.5t-48.5 337t-138.5 197.5q-61 76 -80.5 120t-19.5 89z" />
<glyph unicode="w" horiz-adv-x="1067" d="M47 209q0 74 47 186l105 254q12 53 12 103q0 125 -47 217t-107 168l-6 30q0 68 74 90l74 11l61 4q55 0 92 -13.5t62 -50.5l6 -37q0 -27 -26 -86q-22 -51 -22 -73q0 -3 1 -6q6 -43 26 -43q12 0 27 20l25 45l36 178q18 49 70 49l41 -6q14 -6 25.5 -30.5t11.5 -71.5v-49v-39 q0 -16 17.5 -51t43.5 -35q18 0 19 37q0 25 -4 37q0 18 -11.5 47.5t-16.5 56.5t-7 35q0 25 14.5 43t52.5 37l64 6l47 4q41 0 66.5 -7t42.5 -30q20 -41 20 -80q0 -29 -12.5 -66.5t-51 -113.5t-51.5 -113l-6 -73q0 -57 18.5 -134t79 -230t60.5 -261l-2 -33l-8 -55 q0 -35 -78 -66q-77 -26 -165 -26h-7q-70 0 -118 27.5t-79 93.5l-12 73l-4 78q0 70 18.5 241t18.5 283q0 33 -7.5 60.5t-31.5 27.5q-16 0 -33.5 -23.5t-17.5 -68.5v-37l8 -192l8 -240q0 -135 -16 -194q-12 -43 -30 -71t-63 -48.5t-114 -20.5q-90 0 -156 43q-39 39 -65 89 q-18 47 -19 100z" />
<glyph unicode="x" horiz-adv-x="1021" d="M47 201q0 45 2 63q10 43 17.5 105.5t95.5 223.5t231 325q-25 63 -133 135.5t-137 101.5l-6 29q0 31 33 49l57 31l61 6q78 0 139.5 -41t106.5 -115q25 6 66 41l94 80q49 37 123 37q45 0 83 -16.5t56 -51.5v-20q0 -12 -12 -25l-117 -82q-98 -68 -158 -133 q174 -260 251 -401.5t77 -313.5q0 -90 -23 -163q-39 -43 -103.5 -62.5t-133.5 -19.5q-70 0 -105 20q-43 35 -60 87t-17 116q0 49 6 97t17 125t11 122q0 72 -13 118t-52 95q-29 -41 -43.5 -92t-14.5 -115q0 -59 15 -160l14 -157q0 -78 -22.5 -134.5t-83.5 -107.5 q-33 -6 -66 -10t-61 -4q-72 0 -119 20q-37 29 -60 82q-8 27 -12 51.5t-4 63.5z" />
<glyph unicode="y" horiz-adv-x="802" d="M37 1169q2 33 28.5 64t61.5 37l70 8q49 0 86 -18.5t57 -63.5l12 -70l4 -77q0 -113 33 -113q12 0 30.5 31.5t33 105.5t20.5 100.5t21.5 52t68.5 46.5l62 6q51 0 85.5 -17.5t34.5 -54.5q0 -51 -59 -110l-108 -127q-25 -33 -41 -97l-13 -51l-4 -53q0 -88 73 -265t73 -239 q0 -49 -17.5 -98t-58.5 -94q-90 -86 -232 -86q-78 0 -135 24.5t-87 72.5t-44 97l-10 78q0 100 96 279.5t96 263.5q0 53 -22 100q-16 45 -52 82t-99.5 86t-63.5 100z" />
<glyph unicode="z" horiz-adv-x="772" d="M36 320.5q11 60.5 16 82t16 56.5l36 182q18 96 64 156l121 102q104 86 117 170q-16 10 -44 14q-25 0 -36 -11t-40.5 -66.5t-68.5 -61.5q-68 6 -104 70q-33 66 -33 133q0 23 12 69t117 56l170 10q158 0 231.5 -13t124.5 -91l8 -39q0 -20 -15 -41t-156.5 -156t-176.5 -205 q-10 -39 25 -39q14 0 34.5 9.5t59.5 54.5l39 31q10 6 33 10q18 0 30 -21q20 -47 34 -110.5t14 -149.5t6 -131t16 -84t14.5 -57.5t4.5 -42.5q0 -74 -56 -141q-57 -41 -111.5 -55.5t-97.5 -20.5t-82 -6q-121 0 -199.5 29.5t-107.5 78.5q-26 51 -26 112q0 56 11 116.5z" />
<glyph unicode="&#xa2;" horiz-adv-x="858" d="M39 721q0 123 16.5 199.5t32.5 132t39 104.5q23 84 94.5 161t153.5 103q14 8 14 52q0 41 43 34l21 2q65 1 65 -69q61 -12 102.5 -31.5t55.5 -65.5l20 -69l6 -64q0 -39 -9 -65.5t-40 -50.5l-98 -27q-20 0 -39.5 18.5t-19.5 79.5q0 63 -31 86q-45 6 -66.5 -21.5 t-50.5 -86.5l-8 -56q0 -20 2 -32.5t12 -48.5l21 -74q18 -27 43 -37l82 -23q33 0 105.5 43t107.5 39q53 -72 79.5 -172t26.5 -198q0 -172 -65 -301q-20 -80 -152.5 -122t-132.5 -134l-35 2q-39 0 -57.5 7t-11.5 44q0 49 -67 73.5t-85 49.5q-84 94 -129 229t-45 289z" />
<glyph unicode="&#xad;" d="M39 590q29 135 49.5 195.5t85.5 101.5l352 -4l277 -4q29 -35 28 -80q0 -41 -36 -131l-37 -97q-29 -23 -99.5 -34t-124 -15t-110.5 -4q-127 0 -239.5 18.5t-145.5 53.5z" />
<glyph unicode="&#x2000;" horiz-adv-x="958" />
<glyph unicode="&#x2001;" horiz-adv-x="1917" />
<glyph unicode="&#x2002;" horiz-adv-x="958" />
<glyph unicode="&#x2003;" horiz-adv-x="1917" />
<glyph unicode="&#x2004;" horiz-adv-x="639" />
<glyph unicode="&#x2005;" horiz-adv-x="479" />
<glyph unicode="&#x2006;" horiz-adv-x="319" />
<glyph unicode="&#x2007;" horiz-adv-x="319" />
<glyph unicode="&#x2008;" horiz-adv-x="239" />
<glyph unicode="&#x2009;" horiz-adv-x="383" />
<glyph unicode="&#x200a;" horiz-adv-x="106" />
<glyph unicode="&#x2010;" d="M39 590q29 135 49.5 195.5t85.5 101.5l352 -4l277 -4q29 -35 28 -80q0 -41 -36 -131l-37 -97q-29 -23 -99.5 -34t-124 -15t-110.5 -4q-127 0 -239.5 18.5t-145.5 53.5z" />
<glyph unicode="&#x2011;" d="M39 590q29 135 49.5 195.5t85.5 101.5l352 -4l277 -4q29 -35 28 -80q0 -41 -36 -131l-37 -97q-29 -23 -99.5 -34t-124 -15t-110.5 -4q-127 0 -239.5 18.5t-145.5 53.5z" />
<glyph unicode="&#x2012;" d="M39 590q29 135 49.5 195.5t85.5 101.5l352 -4l277 -4q29 -35 28 -80q0 -41 -36 -131l-37 -97q-29 -23 -99.5 -34t-124 -15t-110.5 -4q-127 0 -239.5 18.5t-145.5 53.5z" />
<glyph unicode="&#x2013;" horiz-adv-x="1101" d="M39 590q37 135 64 195.5t111 101.5l455 -4l358 -4q37 -35 36 -80q0 -41 -47 -131l-47 -97q-38 -23 -129 -34t-160.5 -15t-142.5 -4q-164 0 -309.5 18.5t-188.5 53.5z" />
<glyph unicode="&#x2014;" horiz-adv-x="2125" d="M39 590q75 135 128 195.5t221 101.5l910 -4l717 -4q75 -35 72 -80q0 -41 -93 -131l-96 -97q-75 -23 -257 -34t-320.5 -15t-285.5 -4q-329 0 -620 18.5t-376 53.5z" />
<glyph unicode="&#x2018;" horiz-adv-x="567" d="M25 1266q0 147 67.5 291.5t188.5 267.5l77 41q16 8 30.5 12t35.5 4q34 0 59 -31q-8 -25 -29.5 -57.5t-55 -86.5t-33.5 -112l6 -43q6 -25 58 -125t52 -161q0 -45 -31.5 -123t-77.5 -129t-98 -70q-74 0 -129 24.5t-82 82.5q-39 111 -38 215z" />
<glyph unicode="&#x2019;" horiz-adv-x="524" d="M25 1559q0 29 12 65q16 96 71.5 168t141.5 102q61 6 111 -29.5t73 -90.5q12 -33 23 -91l6 -102q0 -123 -42 -251t-114 -240q-63 -70 -94 -89.5t-55.5 -29.5t-51.5 -10l-24 2q-12 20 -14 47q0 33 41 95t49 95l4 39q0 51 -68.5 159.5t-68.5 160.5z" />
<glyph unicode="&#x202f;" horiz-adv-x="383" />
<glyph unicode="&#x205f;" horiz-adv-x="479" />
<glyph unicode="&#x25fc;" horiz-adv-x="1269" d="M0 0v1270h1270v-1270h-1270z" />
</font>
</defs>
</svg>
